<svg xmlns="http://www.w3.org/2000/svg" width="211" height="149.339" viewBox="0 0 211 149.339"><g transform="translate(-3083.5 -231)"><g transform="translate(3083.5 231)" fill="#f6f5f5" stroke="#a7a7a7" stroke-width="1"><rect width="211" height="149.339" rx="10" stroke="none"/><rect x="0.5" y="0.5" width="210" height="148.339" rx="9.5" fill="none"/></g><g transform="translate(41.437 -374.75)"><rect width="192.127" height="39" rx="6" transform="translate(3051.5 614.75)" fill="#ecebeb"/><text transform="translate(3062.5 640.75)" font-size="16" font-family="SegoeUI, Segoe UI"><tspan x="0" y="0" xml:space="preserve">PNG  (</tspan><tspan y="0" font-family="YuGothicUI-Regular, Yu Gothic UI">默</tspan><tspan y="0" font-family="MicrosoftJhengHeiUIRegular, Microsoft JhengHei UI">认</tspan><tspan y="0">)</tspan></text><path d="M3211.582,581.216l3.434,3.219,7.774-7.774" transform="translate(0 55)" fill="none" stroke="#3e3e3e" stroke-width="1"/></g><g transform="translate(41.437 -328.75)"><rect width="192.127" height="39" rx="6" transform="translate(3051.5 614.75)" fill="#ecebeb" opacity="0"/><text transform="translate(3062.5 640.75)" font-size="16" font-family="SegoeUI, Segoe UI"><tspan x="0" y="0" xml:space="preserve">WEBP  (</tspan><tspan y="0" font-family="YuGothicUI-Regular, Yu Gothic UI">默</tspan><tspan y="0" font-family="MicrosoftJhengHeiUIRegular, Microsoft JhengHei UI">认</tspan><tspan y="0">)</tspan></text><path d="M3211.582,581.216l3.434,3.219,7.774-7.774" transform="translate(0 55)" fill="none" stroke="#3e3e3e" stroke-width="1" opacity="0"/></g><g transform="translate(41.437 -282.75)"><rect width="192.127" height="39" rx="6" transform="translate(3051.5 614.75)" fill="#ecebeb" opacity="0"/><text transform="translate(3062.5 640.75)" font-size="16" font-family="SegoeUI, Segoe UI"><tspan x="0" y="0">JPG </tspan></text><path d="M3211.582,581.216l3.434,3.219,7.774-7.774" transform="translate(0 55)" fill="none" stroke="#3e3e3e" stroke-width="1" opacity="0"/></g></g></svg>