<svg xmlns="http://www.w3.org/2000/svg" width="583" height="561" viewBox="0 0 583 561"><g transform="translate(-1588 -2844)"><rect width="583" height="561" rx="18" transform="translate(1588 2844)" fill="#f5f5f5"/><text transform="translate(1608 2880)" font-size="18" font-family="MicrosoftJhengHeiUIBold, Microsoft JhengHei UI"><tspan x="0" y="0">请选择图</tspan><tspan y="0" font-family="YuGothicUI-Bold, Yu Gothic UI" font-weight="700">片命名格式</tspan></text><text transform="translate(1608 2905)" fill="#7a7a7a" font-size="14" font-family="MicrosoftJhengHeiUIRegular, Microsoft JhengHei UI"><tspan x="0" y="0">这</tspan><tspan y="0" font-family="YuGothicUI-Regular, Yu Gothic UI">里</tspan><tspan y="0">选择</tspan><tspan y="0" font-family="YuGothicUI-Regular, Yu Gothic UI">好下</tspan><tspan y="0">载时图</tspan><tspan y="0" font-family="YuGothicUI-Regular, Yu Gothic UI">片名称格式后，下</tspan><tspan y="0">载</tspan><tspan y="0" font-family="YuGothicUI-Regular, Yu Gothic UI">的</tspan><tspan y="0">图</tspan><tspan y="0" font-family="YuGothicUI-Regular, Yu Gothic UI">片将按照</tspan><tspan y="0">选择</tspan><tspan y="0" font-family="YuGothicUI-Regular, Yu Gothic UI">的命名方式命名。</tspan></text><g transform="translate(1608 3243)"><line x2="558.076" transform="translate(4.5 50.5)" fill="none" stroke="#d4d4d4" stroke-width="1"/><text transform="translate(0 26)" fill="#4b4b4b" font-size="16" font-family="YuGothicUI-Bold, Yu Gothic UI" font-weight="700"><tspan x="0" y="0">自定</tspan><tspan y="0" font-family="MicrosoftJhengHeiUIBold, Microsoft JhengHei UI" font-weight="400">义</tspan><tspan y="0">前</tspan><tspan y="0" font-family="MicrosoftJhengHeiUIBold, Microsoft JhengHei UI" font-weight="400">缀</tspan></text><g transform="translate(331.538)"><g fill="none" stroke="#b8b8b8" stroke-width="1"><rect width="211.743" height="39" rx="10" stroke="none"/><rect x="0.5" y="0.5" width="210.743" height="38" rx="9.5" fill="none"/></g><text transform="translate(17.024 26)" font-size="16" font-family="YuGothicUI-Regular, Yu Gothic UI"><tspan x="0" y="0">你好</tspan></text></g></g><g transform="translate(1608 3190)"><line x2="558.076" transform="translate(4.5 46.75)" fill="none" stroke="#d4d4d4" stroke-width="1"/><text transform="translate(0 22.25)" fill="#4b4b4b" font-size="16" font-family="YuGothicUI-Bold, Yu Gothic UI" font-weight="700"><tspan x="0" y="0">序号</tspan><tspan y="0" font-family="SegoeUI-Bold, Segoe UI">/</tspan><tspan y="0" font-family="MicrosoftJhengHeiUIBold, Microsoft JhengHei UI" font-weight="400">时间</tspan><tspan y="0">戳</tspan></text><g transform="translate(331.5)"><g fill="none" stroke="#b8b8b8" stroke-width="1"><rect width="211" height="39" rx="10" stroke="none"/><rect x="0.5" y="0.5" width="210" height="38" rx="9.5" fill="none"/></g><text transform="translate(15 26)" font-size="16" font-family="YuGothicUI-Regular, Yu Gothic UI"><tspan x="0" y="0">序号</tspan><tspan y="0" xml:space="preserve" font-family="SegoeUI, Segoe UI">  (</tspan><tspan y="0">默</tspan><tspan y="0" font-family="MicrosoftJhengHeiUIRegular, Microsoft JhengHei UI">认</tspan><tspan y="0" font-family="SegoeUI, Segoe UI">)</tspan></text><path d="M1740.406,613.9l4.837,4.837,4.837-4.837" transform="translate(-1555 -598)" fill="none" stroke="#707070" stroke-width="1"/></g></g><g transform="translate(1608 3301)"><text transform="translate(0 25)" fill="#4b4b4b" font-size="16" font-family="YuGothicUI-Bold, Yu Gothic UI" font-weight="700"><tspan x="0" y="0">自定</tspan><tspan y="0" font-family="MicrosoftJhengHeiUIBold, Microsoft JhengHei UI" font-weight="400">义</tspan><tspan y="0">后</tspan><tspan y="0" font-family="MicrosoftJhengHeiUIBold, Microsoft JhengHei UI" font-weight="400">缀</tspan></text><g transform="translate(331.538)"><g fill="none" stroke="#b8b8b8" stroke-width="1"><rect width="212.996" height="39" rx="10" stroke="none"/><rect x="0.5" y="0.5" width="211.996" height="38" rx="9.5" fill="none"/></g><text transform="translate(17.024 26)" font-size="16" font-family="YuGothicUI-Regular, Yu Gothic UI"><tspan x="0" y="0">豆包</tspan></text></g></g><g transform="translate(2138.54 2867.408)"><path d="M2109.8,2818.842l-10.92,10.92" transform="translate(-2098.884 -2818.842)" fill="none" stroke="#a1a1a1" stroke-width="2"/><path d="M10.92,0,0,10.92" transform="translate(0 10.92) rotate(-90)" fill="none" stroke="#a1a1a1" stroke-width="2"/></g><g transform="translate(1608 2926)"><rect width="544" height="51" rx="18" fill="#fff"/><text transform="translate(15 32)" font-size="14" font-family="MicrosoftJhengHeiUIBold, Microsoft JhengHei UI"><tspan x="0" y="0">对话</tspan><tspan y="0" font-family="YuGothicUI-Bold, Yu Gothic UI" font-weight="700">名</tspan><tspan y="0" font-family="SegoeUI-Bold, Segoe UI" font-weight="700">+</tspan><tspan y="0">对话</tspan><tspan y="0" font-family="SegoeUI-Bold, Segoe UI" font-weight="700">id+</tspan><tspan y="0" font-family="YuGothicUI-Bold, Yu Gothic UI" font-weight="700">序号</tspan><tspan y="0" font-family="SegoeUI-Bold, Segoe UI" font-weight="700">/</tspan><tspan y="0">时间</tspan><tspan y="0" font-family="YuGothicUI-Bold, Yu Gothic UI" font-weight="700">戳</tspan></text><g transform="translate(504 17)" fill="none" stroke="#08f" stroke-width="6"><circle cx="10" cy="10" r="10" stroke="none"/><circle cx="10" cy="10" r="7" fill="none"/></g></g><g transform="translate(1608 2988)"><rect width="544" height="51" rx="18" fill="#fff"/><text transform="translate(15 32)" font-size="14" font-family="MicrosoftJhengHeiUIBold, Microsoft JhengHei UI"><tspan x="0" y="0">对话</tspan><tspan y="0" font-family="YuGothicUI-Bold, Yu Gothic UI" font-weight="700">名</tspan><tspan y="0" font-family="SegoeUI-Bold, Segoe UI" font-weight="700">+</tspan><tspan y="0">时间</tspan><tspan y="0" font-family="YuGothicUI-Bold, Yu Gothic UI" font-weight="700">戳</tspan><tspan y="0" font-family="SegoeUI-Bold, Segoe UI" font-weight="700">/</tspan><tspan y="0" font-family="YuGothicUI-Bold, Yu Gothic UI" font-weight="700">序号</tspan></text><g transform="translate(504 17)" fill="#fff" stroke="#bebebe" stroke-width="2"><circle cx="10" cy="10" r="10" stroke="none"/><circle cx="10" cy="10" r="9" fill="none"/></g></g><g transform="translate(1608 3051)"><rect width="544" height="51" rx="18" fill="#fff"/><text transform="translate(15 32)" font-size="14" font-family="YuGothicUI-Bold, Yu Gothic UI" font-weight="700"><tspan x="0" y="0">自定</tspan><tspan y="0" font-family="MicrosoftJhengHeiUIBold, Microsoft JhengHei UI" font-weight="400">义</tspan><tspan y="0">前</tspan><tspan y="0" font-family="MicrosoftJhengHeiUIBold, Microsoft JhengHei UI" font-weight="400">缀</tspan><tspan y="0" font-family="SegoeUI-Bold, Segoe UI">+</tspan><tspan y="0" font-family="MicrosoftJhengHeiUIBold, Microsoft JhengHei UI" font-weight="400">时间</tspan><tspan y="0">戳</tspan><tspan y="0" font-family="SegoeUI-Bold, Segoe UI">/</tspan><tspan y="0">序号</tspan></text><g transform="translate(504 17)" fill="#fff" stroke="#bebebe" stroke-width="2"><circle cx="10" cy="10" r="10" stroke="none"/><circle cx="10" cy="10" r="9" fill="none"/></g></g><g transform="translate(1608 3113)"><rect width="544" height="51" rx="18" fill="#fff"/><text transform="translate(15 32)" font-size="14" font-family="YuGothicUI-Bold, Yu Gothic UI" font-weight="700"><tspan x="0" y="0">序号</tspan><tspan y="0" font-family="SegoeUI-Bold, Segoe UI">/</tspan><tspan y="0" font-family="MicrosoftJhengHeiUIBold, Microsoft JhengHei UI" font-weight="400">时间</tspan><tspan y="0">戳</tspan><tspan y="0" font-family="SegoeUI-Bold, Segoe UI">+</tspan><tspan y="0">自定</tspan><tspan y="0" font-family="MicrosoftJhengHeiUIBold, Microsoft JhengHei UI" font-weight="400">义</tspan><tspan y="0">后</tspan><tspan y="0" font-family="MicrosoftJhengHeiUIBold, Microsoft JhengHei UI" font-weight="400">缀</tspan></text><g transform="translate(504 17)" fill="#fff" stroke="#bebebe" stroke-width="2"><circle cx="10" cy="10" r="10" stroke="none"/><circle cx="10" cy="10" r="9" fill="none"/></g></g><g transform="translate(1972.091 3357)"><g transform="translate(-0.091)" fill="#fff" stroke="#b8b8b8" stroke-width="1"><rect width="76" height="34" rx="10" stroke="none"/><rect x="0.5" y="0.5" width="75" height="33" rx="9.5" fill="none"/></g><text transform="translate(21.909 24)" font-size="16" font-family="YuGothicUI-Regular, Yu Gothic UI"><tspan x="0" y="0">取消</tspan></text></g><g transform="translate(2076 3357)"><rect width="76.743" height="34.001" rx="10" fill="#0057ff"/><text transform="translate(22 24)" fill="#fff" font-size="16" font-family="YuGothicUI-Regular, Yu Gothic UI"><tspan x="0" y="0">保存</tspan></text></g></g></svg>