<svg xmlns="http://www.w3.org/2000/svg" xmlns:xlink="http://www.w3.org/1999/xlink" width="583" height="631" viewBox="0 0 583 631">
  <defs>
    <pattern id="pattern" preserveAspectRatio="xMidYMid slice" width="100%" height="100%" viewBox="0 0 2048 2048">
      <image width="2048" height="2048" xlink:href="https://cdn.h5ds.com/space/files/600972551685382144/20251116/914492633045823488.png"/>
    </pattern>
  </defs>
  <g id="设置首选项" transform="translate(-1328 -2078)">
    <g id="body" transform="translate(1328 2078)" fill="#fff" stroke="#f2f2f2" stroke-width="1">
      <rect width="583" height="631" rx="29" stroke="none"/>
      <rect x="0.5" y="0.5" width="582" height="630" rx="28.5" fill="none"/>
    </g>
    <g id="页脚">
      <text id="脚本仅供个人学习测试使用_请在下载后24小时内删除_不得用于商业用途_否则后果自负" data-name="脚本仅供个人学习测试使用，请在下载后24小时内删除，不得用于商业用途，否则后果自负" transform="translate(1399 2695.5)" fill="#676767" font-size="11" font-family="YuGothicUI-Regular, Yu Gothic UI"><tspan x="0" y="0">脚本</tspan><tspan y="0" font-family="MicrosoftJhengHeiUIRegular, Microsoft JhengHei UI">仅</tspan><tspan y="0">供个人学</tspan><tspan y="0" font-family="MicrosoftJhengHeiUIRegular, Microsoft JhengHei UI">习测试</tspan><tspan y="0">使用，</tspan><tspan y="0" font-family="MicrosoftJhengHeiUIRegular, Microsoft JhengHei UI">请</tspan><tspan y="0">在下</tspan><tspan y="0" font-family="MicrosoftJhengHeiUIRegular, Microsoft JhengHei UI">载</tspan><tspan y="0">后</tspan><tspan y="0" font-family="SegoeUI, Segoe UI">24</tspan><tspan y="0">小</tspan><tspan y="0" font-family="MicrosoftJhengHeiUIRegular, Microsoft JhengHei UI">时</tspan><tspan y="0">内</tspan><tspan y="0" font-family="MicrosoftJhengHeiUIRegular, Microsoft JhengHei UI">删</tspan><tspan y="0">除，不得用于商</tspan><tspan y="0" font-family="MicrosoftJhengHeiUIRegular, Microsoft JhengHei UI">业</tspan><tspan y="0">用途，否</tspan><tspan y="0" font-family="MicrosoftJhengHeiUIRegular, Microsoft JhengHei UI">则</tspan><tspan y="0">后果自</tspan><tspan y="0" font-family="MicrosoftJhengHeiUIRegular, Microsoft JhengHei UI">负</tspan></text>
    </g>
    <g id="主体" transform="translate(1336 2104)">
      <g id="设置选项列表" transform="translate(0 190)">
        <rect id="背景" width="567" height="369" rx="18" fill="#f5f5f5"/>
        <g id="选项列表" transform="translate(15 12)">
          <g id="关于脚本" transform="translate(0 311)">
            <text id="关于脚本-2" data-name="关于脚本" transform="translate(48.5 22)" font-size="16" font-family="YuGothicUI-Bold, Yu Gothic UI" font-weight="700"><tspan x="0" y="0">关于脚本</tspan></text>
            <g id="组_20" data-name="组 20">
              <rect id="矩形_2" data-name="矩形 2" width="34" height="34" rx="10" fill="#06f"/>
              <path id="路径_9" data-name="路径 9" d="M11.708,13.035a.63.63,0,0,1-.63.63H6.818a.634.634,0,0,1,0-1.268h1.5V6.885H7.26a.634.634,0,0,1,0-1.268H8.947a.63.63,0,0,1,.63.63V12.4h1.5a.63.63,0,0,1,.63.63Zm-2.76-9.8a.63.63,0,1,1-.63.63A.63.63,0,0,1,8.947,3.24ZM9,0a9,9,0,1,0,9,9A9,9,0,0,0,9,0Z" transform="translate(8 8)" fill="#fff"/>
            </g>
          </g>
          <g id="分享脚本给好友" transform="translate(0 259)">
            <text id="分享脚本给好友-2" data-name="分享脚本给好友" transform="translate(48.5 22.5)" font-size="16" font-family="YuGothicUI-Bold, Yu Gothic UI" font-weight="700"><tspan x="0" y="0">分享脚本</tspan><tspan y="0" font-family="MicrosoftJhengHeiUIBold, Microsoft JhengHei UI" font-weight="400">给</tspan><tspan y="0">好友</tspan></text>
            <line id="直线_4" data-name="直线 4" x2="503.217" transform="translate(49 43.75)" fill="none" stroke="#d4d4d4" stroke-width="1"/>
            <g id="组_20-2" data-name="组 20">
              <rect id="矩形_2-2" data-name="矩形 2" width="34" height="34" rx="10" fill="#ff3b30"/>
              <path id="路径_8" data-name="路径 8" d="M103.046,139.048a1.239,1.239,0,0,1-.8-.281c-.191-.158-4.863-3.771-6.732-6.709a7.4,7.4,0,0,1-1.475-4.154,5.44,5.44,0,0,1,5.178-5.651,5.044,5.044,0,0,1,3.827,1.824,4.95,4.95,0,0,1,3.816-1.824,5.432,5.432,0,0,1,5.178,5.651,7.292,7.292,0,0,1-1.452,4.12l-.023.034c-1.869,2.938-6.54,6.563-6.732,6.709a1.249,1.249,0,0,1-.788.281Z" transform="translate(-86.041 -113.253)" fill="#fff"/>
            </g>
          </g>
          <g id="图片名称格式" transform="translate(0 207)">
            <text id="图片命名格式" transform="translate(48.5 23)" font-size="16" font-family="MicrosoftJhengHeiUIBold, Microsoft JhengHei UI"><tspan x="0" y="0">图</tspan><tspan y="0" font-family="YuGothicUI-Bold, Yu Gothic UI" font-weight="700">片命名格式</tspan></text>
            <g id="组_15" data-name="组 15">
              <rect id="矩形_2-3" data-name="矩形 2" width="34" height="34" rx="10" fill="#9952e1"/>
              <path id="路径_13" data-name="路径 13" d="M220.606,66.48h3.679V64.64H213.248v1.84h3.678v5.988H214.17v.92h2.758v5.97h-3.68V81.2h11.037V79.358h-3.679v-5.97h2.761v-.92h-2.761Z" transform="translate(-202.248 -55.64)" fill="#fff"/>
            </g>
            <line id="直线_5" data-name="直线 5" x2="503.217" transform="translate(49 42.25)" fill="none" stroke="#d4d4d4" stroke-width="1"/>
          </g>
          <g id="下载位置" transform="translate(0 150)">
            <text id="下载位置-2" data-name="下载位置" transform="translate(48.5 20)" font-size="16" font-family="YuGothicUI-Bold, Yu Gothic UI" font-weight="700"><tspan x="0" y="0">下</tspan><tspan y="0" font-family="MicrosoftJhengHeiUIBold, Microsoft JhengHei UI" font-weight="400">载</tspan><tspan y="0">位置</tspan></text>
            <text id="C:_Users_Administrator_Downloads" data-name="C:\Users\Administrator\Downloads" transform="translate(48.5 38)" fill="#676767" font-size="12" font-family="SegoeUI, Segoe UI"><tspan x="0" y="0">C:\Users\Administrator\Downloads</tspan></text>
            <line id="直线_2" data-name="直线 2" x2="503.217" transform="translate(49 47.25)" fill="none" stroke="#d4d4d4" stroke-width="1"/>
            <g id="组_14" data-name="组 14" transform="translate(480.974)">
              <g id="矩形_3" data-name="矩形 3" fill="none" stroke="#b8b8b8" stroke-width="1">
                <rect width="62.743" height="39" rx="10" stroke="none"/>
                <rect x="0.5" y="0.5" width="61.743" height="38" rx="9.5" fill="none"/>
              </g>
              <text id="更改" transform="translate(15 26)" font-size="16" font-family="YuGothicUI-Regular, Yu Gothic UI"><tspan x="0" y="0">更改</tspan></text>
            </g>
            <g id="组_16" data-name="组 16" transform="translate(0 8.5)">
              <rect id="矩形_5" data-name="矩形 5" width="34" height="34" rx="10" fill="#ff9500"/>
              <path id="路径_4" data-name="路径 4" d="M9.017,12.286a.2.2,0,0,0,.309,0l2.746-3.475a.2.2,0,0,0-.153-.316H10.1V.2A.2.2,0,0,0,9.9,0H8.434a.2.2,0,0,0-.2.2v8.3H6.425a.2.2,0,0,0-.155.316l2.746,3.478Zm9.129-.858H16.676a.2.2,0,0,0-.2.2V15.4H1.864V11.625a.2.2,0,0,0-.2-.2H.2a.2.2,0,0,0-.2.2V16.48a.784.784,0,0,0,.784.784H17.559a.784.784,0,0,0,.784-.784V11.623a.2.2,0,0,0-.2-.2Z" transform="translate(8 8)" fill="#fff"/>
            </g>
          </g>
          <g id="下载图片格式" transform="translate(0 95)">
            <text id="下载图片格式-2" data-name="下载图片格式" transform="translate(48.5 26)" font-size="16" font-family="YuGothicUI-Bold, Yu Gothic UI" font-weight="700"><tspan x="0" y="0">下</tspan><tspan y="0" font-family="MicrosoftJhengHeiUIBold, Microsoft JhengHei UI" font-weight="400">载图</tspan><tspan y="0">片格式</tspan></text>
            <line id="直线_1" data-name="直线 1" x2="503.217" transform="translate(49 47.25)" fill="none" stroke="#d4d4d4" stroke-width="1"/>
            <g id="下载图片格式下拉列表" transform="translate(332.717)">
              <g id="矩形_3-2" data-name="矩形 3" fill="none" stroke="#b8b8b8" stroke-width="1">
                <rect width="211" height="39" rx="10" stroke="none"/>
                <rect x="0.5" y="0.5" width="210" height="38" rx="9.5" fill="none"/>
              </g>
              <text id="PNG_默认_" data-name="PNG  (默认)" transform="translate(15 26)" font-size="16" font-family="SegoeUI, Segoe UI"><tspan x="0" y="0" xml:space="preserve">PNG  (</tspan><tspan y="0" font-family="YuGothicUI-Regular, Yu Gothic UI">默</tspan><tspan y="0" font-family="MicrosoftJhengHeiUIRegular, Microsoft JhengHei UI">认</tspan><tspan y="0">)</tspan></text>
              <path id="路径_1" data-name="路径 1" d="M1740.406,613.9l4.837,4.837,4.837-4.837" transform="translate(-1555 -598)" fill="none" stroke="#707070" stroke-width="1"/>
            </g>
            <g id="图标" transform="translate(0 3)">
              <rect id="矩形_2-4" data-name="矩形 2" width="34" height="34" rx="10" fill="#06f"/>
              <path id="路径_6" data-name="路径 6" d="M140.1,64a1.166,1.166,0,0,1,.766.282l4.785,4.182a1.008,1.008,0,0,1,.352.756V81.308a2.161,2.161,0,0,1-2.236,2.077H130.236A2.161,2.161,0,0,1,128,81.308V66.077A2.161,2.161,0,0,1,130.236,64Zm-1.18,1.385H130.61a1.087,1.087,0,0,0-1.117.978v14.6A1.076,1.076,0,0,0,130.544,82H143.39a1.088,1.088,0,0,0,1.117-.978V70.231h-3.355a2.161,2.161,0,0,1-2.236-2.077Zm-1.468,6.438a.484.484,0,0,1,.475.388l.01.1v5.538a.483.483,0,0,1-.047.209h.676a.485.485,0,0,1,.1.96l-.1.01h-2.257a.485.485,0,0,1-.1-.96l.1-.01h.706a.481.481,0,0,1-.039-.111l-.01-.1V72.792h-.414a.485.485,0,0,1-.475-.388l-.01-.1a.484.484,0,0,1,.388-.475l.1-.01Zm-.249-2.517a.692.692,0,1,1-.692.692A.692.692,0,0,1,137.2,69.306Zm3.208-3.528v2.03a1.076,1.076,0,0,0,1.052,1.037h2.369Z" transform="translate(-120 -57)" fill="#fff"/>
            </g>
          </g>
          <g id="去水印方案">
            <g id="去水印开关">
              <g id="组_71" data-name="组 71">
                <rect id="矩形_10" data-name="矩形 10" width="402" height="39" rx="10" transform="translate(138 48)" fill="#fff"/>
                <text id="下载去水印" transform="translate(153 74)" font-size="14" font-family="YuGothicUI-Regular, Yu Gothic UI"><tspan x="0" y="0">下</tspan><tspan y="0" font-family="MicrosoftJhengHeiUIRegular, Microsoft JhengHei UI">载</tspan><tspan y="0">去水印</tspan></text>
                <g id="椭圆_1" data-name="椭圆 1" transform="translate(234 59)" fill="none" stroke="#08f" stroke-width="4">
                  <circle cx="9" cy="9" r="9" stroke="none"/>
                  <circle cx="9" cy="9" r="7" fill="none"/>
                </g>
                <text id="大图去水印" transform="translate(283 74)" font-size="14" font-family="YuGothicUI-Regular, Yu Gothic UI"><tspan x="0" y="0">大</tspan><tspan y="0" font-family="MicrosoftJhengHeiUIRegular, Microsoft JhengHei UI">图</tspan><tspan y="0">去水印</tspan></text>
                <g id="椭圆_1-2" data-name="椭圆 1" transform="translate(364 59)" fill="none" stroke="#08f" stroke-width="4">
                  <circle cx="9" cy="9" r="9" stroke="none"/>
                  <circle cx="9" cy="9" r="7" fill="none"/>
                </g>
                <text id="预览去水印" transform="translate(412 74)" font-size="14" font-family="MicrosoftJhengHeiUIRegular, Microsoft JhengHei UI"><tspan x="0" y="0">预览</tspan><tspan y="0" font-family="YuGothicUI-Regular, Yu Gothic UI">去水印</tspan></text>
                <g id="椭圆_1-3" data-name="椭圆 1" transform="translate(493 59)" fill="none" stroke="#cbcbcb" stroke-width="2">
                  <circle cx="9" cy="9" r="9" stroke="none"/>
                  <circle cx="9" cy="9" r="8" fill="none"/>
                </g>
              </g>
              <text id="去水印开关-2" data-name="去水印开关" transform="translate(46 74)" font-size="14" font-family="YuGothicUI-Bold, Yu Gothic UI" font-weight="700"><tspan x="0" y="0">去水印开关</tspan></text>
            </g>
            <g id="去水印方案-2" data-name="去水印方案">
              <line id="直线_3" data-name="直线 3" x2="503.217" transform="translate(49 44.25)" fill="none" stroke="#d4d4d4" stroke-width="1"/>
              <g id="去水印方案下拉列表按钮" transform="translate(332.717)">
                <g id="矩形_3-3" data-name="矩形 3" fill="none" stroke="#b8b8b8" stroke-width="1">
                  <rect width="211" height="39" rx="10" stroke="none"/>
                  <rect x="0.5" y="0.5" width="210" height="38" rx="9.5" fill="none"/>
                </g>
                <text id="LauZz方案_默认_" data-name="LauZz方案  (默认)" transform="translate(15 26)" font-size="16" font-family="SegoeUI, Segoe UI"><tspan x="0" y="0">LauZz</tspan><tspan y="0" font-family="YuGothicUI-Regular, Yu Gothic UI">方案</tspan><tspan y="0" xml:space="preserve">  (</tspan><tspan y="0" font-family="YuGothicUI-Regular, Yu Gothic UI">默</tspan><tspan y="0" font-family="MicrosoftJhengHeiUIRegular, Microsoft JhengHei UI">认</tspan><tspan y="0">)</tspan></text>
                <path id="路径_1-2" data-name="路径 1" d="M1740.406,613.9l4.837,4.837,4.837-4.837" transform="translate(-1555 -598)" fill="none" stroke="#707070" stroke-width="1"/>
              </g>
              <g id="图标-2" data-name="图标">
                <rect id="矩形_2-5" data-name="矩形 2" width="34" height="34" rx="10" fill="#27ce6e"/>
                <path id="路径_7" data-name="路径 7" d="M108.4,79.131a3.173,3.173,0,1,0,3.173-3.173A3.173,3.173,0,0,0,108.4,79.131ZM118.406,68.76a6.291,6.291,0,0,1,2.412.474,3.17,3.17,0,0,1-4.825,0A6.3,6.3,0,0,1,118.406,68.76Zm2.435,12.223a.008.008,0,0,0,0,0,6.382,6.382,0,0,1-4.879,0s0,0,0,.007a4.773,4.773,0,0,1-.86,1.346,7.962,7.962,0,0,0,6.607,0A4.725,4.725,0,0,1,120.841,80.983Zm-6.82-11.955c-.06-.141-.112-.283-.156-.426a7.933,7.933,0,0,0-3.372,5.893,4.777,4.777,0,0,1,1.083-.124c.174,0,.347.01.521.027a6.256,6.256,0,0,1,.459-1.758,6.369,6.369,0,0,1,1.361-2.021,6.709,6.709,0,0,1,.682-.593A4.66,4.66,0,0,1,114.02,69.028Zm8.928-.426c-.045.144-.1.285-.156.426a4.774,4.774,0,0,1-.575,1,6.414,6.414,0,0,1,.682.593,6.342,6.342,0,0,1,1.361,2.021,6.277,6.277,0,0,1,.459,1.758,4.952,4.952,0,0,1,.508-.027,4.727,4.727,0,0,1,1.093.126A7.923,7.923,0,0,0,122.948,68.6Zm-7.715-1.428A3.173,3.173,0,1,0,118.406,64,3.173,3.173,0,0,0,115.233,67.173ZM108.4,79.131a3.173,3.173,0,1,0,3.173-3.173A3.173,3.173,0,0,0,108.4,79.131Zm20,0A3.173,3.173,0,1,1,124.7,76a3.182,3.182,0,0,1,1.582.134,3.174,3.174,0,0,1,2.122,2.995Z" transform="translate(-101.4 -57)" fill="#fff"/>
              </g>
              <text id="去水印方案-3" data-name="去水印方案" transform="translate(48.5 23)" font-size="16" font-family="YuGothicUI-Bold, Yu Gothic UI" font-weight="700"><tspan x="0" y="0">去水印方案</tspan></text>
            </g>
          </g>
        </g>
      </g>
      <g id="导航栏" transform="translate(79)">
        <g id="组_10" data-name="组 10" transform="translate(0 93)">
          <g id="矩形_6" data-name="矩形 6" fill="rgba(223,235,255,0.69)" stroke="#6790ff" stroke-width="1">
            <rect width="112" height="26" rx="13" stroke="none"/>
            <rect x="0.5" y="0.5" width="111" height="25" rx="12.5" fill="none"/>
          </g>
          <text id="_设置首选项" data-name="⚙ 设置首选项" transform="translate(11 17)" fill="#0057ff" font-size="12" font-family="SegoeUIEmoji, Segoe UI Emoji"><tspan x="0" y="0">⚙</tspan><tspan y="0" font-family="SegoeUI-Bold, Segoe UI" font-weight="700"> </tspan><tspan y="0" font-family="MicrosoftJhengHeiUIBold, Microsoft JhengHei UI">设</tspan><tspan y="0" font-family="YuGothicUI-Bold, Yu Gothic UI" font-weight="700">置首</tspan><tspan y="0" font-family="MicrosoftJhengHeiUIBold, Microsoft JhengHei UI">选项</tspan></text>
        </g>
        <g id="组_8" data-name="组 8" transform="translate(277 54)">
          <g id="矩形_7" data-name="矩形 7" fill="#f5f5f5" stroke="#d2d2d2" stroke-width="1">
            <rect width="104" height="26" rx="13" stroke="none"/>
            <rect x="0.5" y="0.5" width="103" height="25" rx="12.5" fill="none"/>
          </g>
          <text id="_致谢名单" data-name="🙇‍♂️ 致谢名单" transform="translate(14 18)" font-size="12" font-family="SegoeUIEmoji, Segoe UI Emoji"><tspan x="0" y="0">🙇‍♂️</tspan><tspan y="0" font-family="SegoeUI-Bold, Segoe UI" font-weight="700"> </tspan><tspan y="0" font-family="YuGothicUI-Bold, Yu Gothic UI" font-weight="700">致</tspan><tspan y="0" font-family="MicrosoftJhengHeiUIBold, Microsoft JhengHei UI">谢</tspan><tspan y="0" font-family="YuGothicUI-Bold, Yu Gothic UI" font-weight="700">名</tspan><tspan y="0" font-family="MicrosoftJhengHeiUIBold, Microsoft JhengHei UI">单</tspan></text>
        </g>
        <g id="组_9" data-name="组 9" transform="translate(306 145)">
          <g id="矩形_7-2" data-name="矩形 7" fill="#f5f5f5" stroke="#d2d2d2" stroke-width="1">
            <rect width="103" height="26" rx="13" stroke="none"/>
            <rect x="0.5" y="0.5" width="102" height="25" rx="12.5" fill="none"/>
          </g>
          <text id="_更新日志" data-name="📑 更新日志" transform="translate(13 18)" font-size="12" font-family="SegoeUIEmoji, Segoe UI Emoji"><tspan x="0" y="0">📑</tspan><tspan y="0" font-family="SegoeUI-Bold, Segoe UI" font-weight="700"> </tspan><tspan y="0" font-family="YuGothicUI-Bold, Yu Gothic UI" font-weight="700">更新日志</tspan></text>
        </g>
        <g id="组_13" data-name="组 13" transform="translate(300 101)">
          <g id="矩形_7-3" data-name="矩形 7" fill="#f5f5f5" stroke="#d2d2d2" stroke-width="1">
            <rect width="104" height="26" rx="13" stroke="none"/>
            <rect x="0.5" y="0.5" width="103" height="25" rx="12.5" fill="none"/>
          </g>
          <text id="_版本_V1.0" data-name="🚀 版本 V1.0" transform="translate(14 17)" font-size="12" font-family="SegoeUIEmoji, Segoe UI Emoji"><tspan x="0" y="0">🚀</tspan><tspan y="0" font-family="SegoeUI-Bold, Segoe UI" font-weight="700"> </tspan><tspan y="0" font-family="YuGothicUI-Bold, Yu Gothic UI" font-weight="700">版本</tspan><tspan y="0" xml:space="preserve" font-family="SegoeUI-Bold, Segoe UI" font-weight="700"> V1.0</tspan></text>
        </g>
        <g id="组_12" data-name="组 12" transform="translate(29 45)">
          <g id="矩形_7-4" data-name="矩形 7" fill="#f5f5f5" stroke="#d2d2d2" stroke-width="1">
            <rect width="104" height="26" rx="13" stroke="none"/>
            <rect x="0.5" y="0.5" width="103" height="25" rx="12.5" fill="none"/>
          </g>
          <text id="_脚本说明" data-name="👋 脚本说明" transform="translate(14 18)" font-size="12" font-family="SegoeUIEmoji, Segoe UI Emoji"><tspan x="0" y="0">👋</tspan><tspan y="0" font-family="SegoeUI-Bold, Segoe UI" font-weight="700"> </tspan><tspan y="0" font-family="YuGothicUI-Bold, Yu Gothic UI" font-weight="700">脚本</tspan><tspan y="0" font-family="MicrosoftJhengHeiUIBold, Microsoft JhengHei UI">说</tspan><tspan y="0" font-family="YuGothicUI-Bold, Yu Gothic UI" font-weight="700">明</tspan></text>
        </g>
        <g id="组_11" data-name="组 11" transform="translate(15 137)">
          <g id="矩形_7-5" data-name="矩形 7" fill="#f5f5f5" stroke="#d2d2d2" stroke-width="1">
            <rect width="103" height="26" rx="13" stroke="none"/>
            <rect x="0.5" y="0.5" width="102" height="25" rx="12.5" fill="none"/>
          </g>
          <text id="_讨论说说" data-name="🔊 讨论说说" transform="translate(14 18)" font-size="12" font-family="SegoeUIEmoji, Segoe UI Emoji"><tspan x="0" y="0">🔊</tspan><tspan y="0" font-family="SegoeUI-Bold, Segoe UI" font-weight="700"> </tspan><tspan y="0" font-family="MicrosoftJhengHeiUIBold, Microsoft JhengHei UI">讨论说说</tspan></text>
        </g>
        <rect id="豆包虚拟形象" width="306" height="306" transform="translate(61)" fill="url(#pattern)"/>
      </g>
    </g>
    <g id="关闭按钮">
      <circle id="椭圆_2" data-name="椭圆 2" cx="19" cy="19" r="19" transform="translate(1856 2094)" fill="#f5f5f5"/>
      <line id="直线_7" data-name="直线 7" x2="13.397" y2="13.397" transform="translate(1868.801 2106.801)" fill="none" stroke="#7e7e7e" stroke-width="2"/>
      <line id="直线_8" data-name="直线 8" x2="13.397" y2="13.397" transform="translate(1882.199 2106.801) rotate(90)" fill="none" stroke="#7e7e7e" stroke-width="2"/>
    </g>
  </g>
</svg>
